<?xml version="1.0" encoding="UTF-8" standalone="no"?>
<!-- Created with Inkscape (http://www.inkscape.org/) -->

<svg
   version="1.1"
   id="svg1"
   width="500"
   height="500"
   viewBox="0 0 500 500"
   sodipodi:docname="cecve_logo.svg"
   inkscape:version="1.3 (0e150ed, 2023-07-21)"
   xmlns:inkscape="http://www.inkscape.org/namespaces/inkscape"
   xmlns:sodipodi="http://sodipodi.sourceforge.net/DTD/sodipodi-0.dtd"
   xmlns="http://www.w3.org/2000/svg"
   xmlns:svg="http://www.w3.org/2000/svg">
  <defs
     id="defs1">
    <clipPath
       clipPathUnits="userSpaceOnUse"
       id="clipPath2">
      <path
         d="M 0,0 H 1562.5 V 1562.5 H 0 Z"
         transform="scale(0.31999999)"
         clip-rule="evenodd"
         id="path2" />
    </clipPath>
    <clipPath
       clipPathUnits="userSpaceOnUse"
       id="clipPath4">
      <path
         d="M 0,0 H 1562.5 V 1562.5 H 0 Z"
         transform="scale(0.31999999)"
         clip-rule="evenodd"
         id="path4" />
    </clipPath>
    <clipPath
       clipPathUnits="userSpaceOnUse"
       id="clipPath6">
      <path
         d="M 284.76346,246.53452 H 1344.1385 V 1296.5345 H 284.76346 Z"
         transform="matrix(0.43030636,0,0,0.43019049,74.03658,-48.256804)"
         clip-rule="evenodd"
         id="path6" />
    </clipPath>
    <clipPath
       clipPathUnits="userSpaceOnUse"
       id="clipPath8">
      <path
         d="M 284.76346,246.53452 H 1344.1385 V 1296.5345 H 284.76346 Z"
         transform="matrix(0.43030636,0,0,0.43019049,74.03658,-48.256804)"
         clip-rule="evenodd"
         id="path8" />
    </clipPath>
    <clipPath
       clipPathUnits="userSpaceOnUse"
       id="clipPath10">
      <path
         d="M 284.76346,246.53452 H 1344.1385 V 1296.5345 H 284.76346 Z"
         transform="matrix(0.43030636,0,0,0.43019049,74.03658,-48.256804)"
         clip-rule="evenodd"
         id="path10" />
    </clipPath>
    <clipPath
       clipPathUnits="userSpaceOnUse"
       id="clipPath12">
      <path
         d="M 284.76346,246.53452 H 1344.1385 V 1296.5345 H 284.76346 Z"
         transform="matrix(0.43030636,0,0,0.43019049,74.03658,-48.256804)"
         clip-rule="evenodd"
         id="path12" />
    </clipPath>
    <clipPath
       clipPathUnits="userSpaceOnUse"
       id="clipPath14">
      <path
         d="M 0,0 H 1562.5 V 1562.5 H 0 Z"
         transform="matrix(0.31999999,0,0,0.31999999,-113.47482,-49.999998)"
         clip-rule="evenodd"
         id="path14" />
    </clipPath>
    <clipPath
       clipPathUnits="userSpaceOnUse"
       id="clipPath25">
      <path
         d="M 460.20486,347.0101 H 841.18042 V 781.38513 H 460.20486 Z"
         transform="matrix(1.5003585,0,0,1.4964028,-690.47228,-519.26689)"
         clip-rule="evenodd"
         id="path25" />
    </clipPath>
    <clipPath
       clipPathUnits="userSpaceOnUse"
       id="clipPath27">
      <path
         d="M 460.20486,347.0101 H 841.18042 V 781.38513 H 460.20486 Z"
         transform="matrix(1.5003585,0,0,1.4964028,-690.47228,-519.26689)"
         clip-rule="evenodd"
         id="path27" />
    </clipPath>
    <clipPath
       clipPathUnits="userSpaceOnUse"
       id="clipPath29">
      <path
         d="M 460.20486,347.0101 H 841.18042 V 781.38513 H 460.20486 Z"
         transform="matrix(1.5003585,0,0,1.4964028,-690.47228,-519.26689)"
         clip-rule="evenodd"
         id="path29" />
    </clipPath>
    <clipPath
       clipPathUnits="userSpaceOnUse"
       id="clipPath31">
      <path
         d="M 460.20486,347.0101 H 841.18042 V 781.38513 H 460.20486 Z"
         transform="matrix(1.5003585,0,0,1.4964028,-690.47228,-519.26689)"
         clip-rule="evenodd"
         id="path31" />
    </clipPath>
    <clipPath
       clipPathUnits="userSpaceOnUse"
       id="clipPath33">
      <path
         d="M 460.20486,347.0101 H 841.18042 V 781.38513 H 460.20486 Z"
         transform="matrix(1.5003585,0,0,1.4964028,-690.47228,-519.26689)"
         clip-rule="evenodd"
         id="path33" />
    </clipPath>
    <clipPath
       clipPathUnits="userSpaceOnUse"
       id="clipPath35">
      <path
         d="M 460.20486,347.0101 H 841.18042 V 781.38513 H 460.20486 Z"
         transform="matrix(1.5003585,0,0,1.4964028,-690.47228,-519.26689)"
         clip-rule="evenodd"
         id="path35" />
    </clipPath>
    <clipPath
       clipPathUnits="userSpaceOnUse"
       id="clipPath37">
      <path
         d="M 460.20486,347.0101 H 841.18042 V 781.38513 H 460.20486 Z"
         transform="matrix(1.5003585,0,0,1.4964028,-690.47228,-519.26689)"
         clip-rule="evenodd"
         id="path37" />
    </clipPath>
    <clipPath
       clipPathUnits="userSpaceOnUse"
       id="clipPath39">
      <path
         d="M 460.20486,347.0101 H 841.18042 V 781.38513 H 460.20486 Z"
         transform="matrix(1.5003585,0,0,1.4964028,-690.47228,-519.26689)"
         clip-rule="evenodd"
         id="path39" />
    </clipPath>
    <clipPath
       clipPathUnits="userSpaceOnUse"
       id="clipPath41">
      <path
         d="M 460.20486,347.0101 H 841.18042 V 781.38513 H 460.20486 Z"
         transform="matrix(1.5003585,0,0,1.4964028,-690.47228,-519.26689)"
         clip-rule="evenodd"
         id="path41" />
    </clipPath>
    <clipPath
       clipPathUnits="userSpaceOnUse"
       id="clipPath43">
      <path
         d="M 460.20486,347.0101 H 841.18042 V 781.38513 H 460.20486 Z"
         transform="matrix(1.5003585,0,0,1.4964028,-690.47228,-519.26689)"
         clip-rule="evenodd"
         id="path43" />
    </clipPath>
    <clipPath
       clipPathUnits="userSpaceOnUse"
       id="clipPath44">
      <path
         d="m 609.65027,387.69946 c -12.28479,0 -22.24359,9.95877 -22.24359,22.24356 0,12.28479 9.9588,22.24356 22.24359,22.24356 12.28473,0 22.24353,-9.95877 22.24353,-22.24356 0,-12.28479 -9.9588,-22.24356 -22.24353,-22.24356 z"
         transform="matrix(5.7544743,0,0,5.7544743,-3380.2167,-2231.0065)"
         id="path44" />
    </clipPath>
    <clipPath
       clipPathUnits="userSpaceOnUse"
       id="clipPath45">
      <path
         d="m 587.40668,387.69946 h 44.48712 v 44.48712 h -44.48712 z"
         transform="scale(0.31999999)"
         id="path45" />
    </clipPath>
    <clipPath
       clipPathUnits="userSpaceOnUse"
       id="clipPath46">
      <path
         d="M 0,0 H 1562.5 V 1562.5 H 0 Z"
         transform="scale(0.31999999)"
         id="path46" />
    </clipPath>
    <clipPath
       clipPathUnits="userSpaceOnUse"
       id="clipPath49">
      <path
         d="M 0,0 H 1562.5 V 1562.5 H 0 Z"
         transform="scale(0.31999999)"
         id="path49" />
    </clipPath>
    <clipPath
       clipPathUnits="userSpaceOnUse"
       id="clipPath50">
      <path
         d="m 807.14673,586.17236 c -11.29944,0 -20.45947,9.16004 -20.45947,20.45948 0,11.29943 9.16003,20.45947 20.45947,20.45947 11.29944,0 20.45947,-9.16004 20.45947,-20.45947 0,-11.29944 -9.16003,-20.45948 -20.45947,-20.45948 z"
         transform="matrix(6.2562743,0,0,6.2562743,-4921.7313,-3667.2551)"
         id="path50" />
    </clipPath>
    <clipPath
       clipPathUnits="userSpaceOnUse"
       id="clipPath51">
      <path
         d="m 786.68726,586.17236 h 40.91894 v 40.91895 h -40.91894 z"
         transform="scale(0.31999999)"
         id="path51" />
    </clipPath>
    <clipPath
       clipPathUnits="userSpaceOnUse"
       id="clipPath52">
      <path
         d="M 0,0 H 1562.5 V 1562.5 H 0 Z"
         transform="scale(0.31999999)"
         id="path52" />
    </clipPath>
    <clipPath
       clipPathUnits="userSpaceOnUse"
       id="clipPath55">
      <path
         d="M 0,0 H 1562.5 V 1562.5 H 0 Z"
         transform="scale(0.31999999)"
         id="path55" />
    </clipPath>
    <clipPath
       clipPathUnits="userSpaceOnUse"
       id="clipPath56">
      <path
         d="m 540.21948,656.82489 c -10.1372,0 -18.35498,8.21777 -18.35498,18.35498 0,10.13715 8.21778,18.35492 18.35498,18.35492 10.13715,0 18.35492,-8.21777 18.35492,-18.35492 0,-10.13721 -8.21777,-18.35498 -18.35492,-18.35498 z"
         transform="matrix(6.9735931,0,0,6.9735931,-3639.2706,-4580.4296)"
         id="path56" />
    </clipPath>
    <clipPath
       clipPathUnits="userSpaceOnUse"
       id="clipPath57">
      <path
         d="m 521.8645,656.82489 h 36.7099 v 36.7099 h -36.7099 z"
         transform="scale(0.31999999)"
         id="path57" />
    </clipPath>
    <clipPath
       clipPathUnits="userSpaceOnUse"
       id="clipPath58">
      <path
         d="M 0,0 H 1562.5 V 1562.5 H 0 Z"
         transform="scale(0.31999999)"
         id="path58" />
    </clipPath>
    <clipPath
       clipPathUnits="userSpaceOnUse"
       id="clipPath61">
      <path
         d="M 0,0 H 1562.5 V 1562.5 H 0 Z"
         transform="scale(0.31999999)"
         id="path61" />
    </clipPath>
  </defs>
  <sodipodi:namedview
     id="namedview1"
     pagecolor="#ffffff"
     bordercolor="#000000"
     borderopacity="0.25"
     inkscape:showpageshadow="2"
     inkscape:pageopacity="0.0"
     inkscape:pagecheckerboard="0"
     inkscape:deskcolor="#d1d1d1"
     inkscape:zoom="1.3350176"
     inkscape:cx="244.94059"
     inkscape:cy="238.19911"
     inkscape:window-width="1680"
     inkscape:window-height="997"
     inkscape:window-x="0"
     inkscape:window-y="25"
     inkscape:window-maximized="1"
     inkscape:current-layer="g1">
    <inkscape:page
       x="0"
       y="0"
       inkscape:label="1"
       id="page1"
       width="500"
       height="500"
       margin="0"
       bleed="0" />
  </sodipodi:namedview>
  <g
     id="g1"
     inkscape:groupmode="layer"
     inkscape:label="1">
    <path
       id="path5"
       d="m 348.72,361.78 c -83.81,0 -152,-68.17999 -152,-152 0,-83.82001 68.17999,-152.000001 152,-152.000001 83.82001,0 152,68.180001 152,152.000001 0,83.82001 -68.19,152 -152,152 z m 0,-279.000001 c -2.07846,0 -4.15567,0.051 -6.23163,0.152977 -2.07596,0.10199 -4.14813,0.254844 -6.21658,0.458572 -2.06845,0.20372 -4.13068,0.458069 -6.18662,0.763039 -2.05593,0.30497 -4.10318,0.660194 -6.14169,1.065681 -2.03854,0.40548 -4.06586,0.860733 -6.082,1.365753 -2.01614,0.505028 -4.01871,1.059212 -6.00766,1.66256 -1.98895,0.603332 -3.96191,1.255104 -5.91885,1.955315 -1.95694,0.700203 -3.89554,1.448005 -5.8158,2.243393 -1.92023,0.795387 -3.81979,1.637413 -5.69873,2.526062 -1.87888,0.888649 -3.73483,1.822868 -5.56787,2.802642 -1.83304,0.979775 -3.64093,2.003929 -5.42371,3.072477 -1.78274,1.06852 -3.53817,2.18015 -5.26635,3.33487 -1.72818,1.15473 -3.42698,2.35115 -5.09638,3.58929 -1.66943,1.23813 -3.30746,2.51647 -4.91409,3.83503 -1.60669,1.31856 -3.18006,2.67573 -4.72006,4.07153 -1.54004,1.39581 -3.0449,2.82855 -4.51456,4.29824 -1.4697,1.46969 -2.90244,2.97454 -4.29823,4.51457 -1.3958,1.54003 -2.75299,3.11338 -4.07155,4.72005 -1.31856,1.60666 -2.5969,3.24471 -3.83504,4.91414 -1.23813,1.66942 -2.43455,3.36821 -3.58928,5.09637 -1.15474,1.72817 -2.26636,3.48362 -3.33488,5.26638 -1.06853,1.78274 -2.09268,3.59063 -3.07245,5.42367 -0.97978,1.83303 -1.914,3.68898 -2.80266,5.56789 -0.88866,1.87889 -1.73067,3.77844 -2.52606,5.69868 -0.7954,1.92025 -1.5432,3.85884 -2.24339,5.8158 -0.70022,1.95695 -1.35199,3.9299 -1.95533,5.91887 -0.60334,1.98895 -1.15753,3.99151 -1.66255,6.00767 -0.50502,2.01616 -0.96028,4.04349 -1.36577,6.082 -0.40548,2.0385 -0.76071,4.08574 -1.06567,6.14171 -0.30498,2.05596 -0.55931,4.11815 -0.76302,6.1866 -0.20372,2.06844 -0.35658,4.14063 -0.45857,6.21657 -0.10199,2.07594 -0.15298,4.15315 -0.15297,6.2316 -1e-5,2.07846 0.051,4.15567 0.15297,6.23161 0.10199,2.07594 0.25485,4.14815 0.45857,6.21659 0.20372,2.06842 0.45806,4.13061 0.76302,6.18656 0.30498,2.05594 0.6602,4.10317 1.06569,6.14168 0.40548,2.03852 0.86073,4.06586 1.36575,6.08203 0.50502,2.01616 1.05921,4.01873 1.66255,6.00769 0.60334,1.98894 1.25511,3.96189 1.95533,5.91884 0.70019,1.95694 1.44799,3.89554 2.24339,5.81577 0.79539,1.92022 1.6374,3.81979 2.52606,5.69867 0.88866,1.8789 1.82286,3.73489 2.80264,5.56793 0.97977,1.83304 2.00392,3.6409 3.07245,5.42364 1.06853,1.78275 2.18016,3.53818 3.3349,5.26636 1.15473,1.72815 2.35115,3.42694 3.5893,5.09641 1.23812,1.6694 2.51648,3.30746 3.83503,4.91412 1.31856,1.60666 2.67574,3.18002 4.07154,4.72006 1.39579,1.54004 2.82853,3.04489 4.29823,4.51459 1.46966,1.4697 2.97452,2.90244 4.51456,4.29822 1.54,1.39581 3.11337,2.75299 4.72006,4.07156 1.60663,1.31854 3.24466,2.59689 4.91409,3.83502 1.6694,1.23813 3.3682,2.43454 5.09638,3.58927 1.72815,1.15472 3.48361,2.26635 5.26635,3.33487 1.78275,1.06854 3.59064,2.09271 5.42368,3.07248 1.83304,0.97976 3.68899,1.91397 5.56787,2.80261 1.87891,0.88867 3.77847,1.73071 5.69873,2.52609 1.92023,0.79538 3.85883,1.54318 5.8158,2.24341 1.95697,0.70019 3.92993,1.35199 5.91888,1.95535 1.98895,0.60333 3.99152,1.1575 6.00766,1.66254 2.01614,0.50503 4.04346,0.96026 6.082,1.36575 2.03851,0.40549 4.08576,0.76071 6.14169,1.06571 2.05594,0.30496 4.11817,0.55929 6.18662,0.76303 2.06845,0.2037 4.14066,0.35656 6.21661,0.45855 2.07593,0.10196 4.15314,0.15296 6.2316,0.15299 2.07846,-3e-5 4.15567,-0.051 6.23163,-0.15299 2.07596,-0.10199 4.14813,-0.25485 6.21658,-0.45855 2.06842,-0.20374 4.13059,-0.45807 6.18653,-0.76303 2.05594,-0.305 4.10318,-0.66022 6.14172,-1.06571 2.03851,-0.40549 4.06586,-0.86072 6.08203,-1.36575 2.01615,-0.50504 4.01871,-1.05921 6.00766,-1.66254 1.98895,-0.60336 3.96192,-1.25516 5.91885,-1.95535 1.95694,-0.70023 3.89554,-1.44803 5.81577,-2.24341 1.92023,-0.79538 3.81979,-1.63742 5.6987,-2.52609 1.87888,-0.88864 3.73486,-1.82285 5.5679,-2.80261 1.83301,-0.97977 3.64087,-2.00394 5.42362,-3.07248 1.78274,-1.06852 3.53817,-2.18015 5.26635,-3.33487 1.72818,-1.15473 3.42698,-2.35117 5.09644,-3.5893 1.6694,-1.23813 3.30746,-2.51645 4.91415,-3.83499 1.60666,-1.31857 3.18,-2.67575 4.72004,-4.07153 1.54,-1.39578 3.04486,-2.82855 4.51455,-4.29825 1.46967,-1.4697 2.90241,-2.97455 4.29825,-4.51459 1.39581,-1.54004 2.75299,-3.11337 4.07156,-4.72003 1.31852,-1.60666 2.59687,-3.24472 3.835,-4.91415 1.23812,-1.66947 2.43454,-3.36826 3.58926,-5.09641 1.15472,-1.72818 2.26636,-3.48364 3.3349,-5.26639 1.06854,-1.78271 2.09271,-3.5906 3.07248,-5.42364 0.97977,-1.83304 1.91397,-3.689 2.80261,-5.5679 0.88864,-1.87888 1.73068,-3.77845 2.52606,-5.69867 0.79541,-1.92023 1.54322,-3.85884 2.24341,-5.8158 0.70023,-1.95694 1.35202,-3.92988 1.95538,-5.91882 0.60334,-1.98897 1.15751,-3.99152 1.66251,-6.00768 0.50504,-2.01617 0.96027,-4.04351 1.36575,-6.08203 0.40549,-2.03851 0.76075,-4.08574 1.06574,-6.14169 0.30496,-2.05595 0.55932,-4.11813 0.76306,-6.18657 0.2037,-2.06844 0.35657,-4.14063 0.45853,-6.21658 0.10199,-2.07595 0.15298,-4.15314 0.15298,-6.2316 -0.003,-2.07764 -0.0562,-4.15395 -0.16055,-6.22893 -0.1044,-2.075 -0.25958,-4.14618 -0.46555,-6.21356 -0.2059,-2.06738 -0.46237,-4.12848 -0.76935,-6.18329 -0.30697,-2.05481 -0.66409,-4.10086 -1.07138,-6.13817 -0.40728,-2.03731 -0.86422,-4.06341 -1.37085,-6.07832 -0.50662,-2.01489 -1.06231,-4.01618 -1.66702,-6.00386 -0.6047,-1.98766 -1.25778,-3.95932 -1.95917,-5.91496 -0.70132,-1.95565 -1.45019,-3.89293 -2.24655,-5.81186 -0.79635,-1.91895 -1.63922,-3.81722 -2.52865,-5.69483 -0.88944,-1.87762 -1.82431,-3.73233 -2.80466,-5.5641 -0.98032,-1.83177 -2.00494,-3.63844 -3.07382,-5.42 -1.06891,-1.78154 -2.18082,-3.53583 -3.3357,-5.26286 -1.15493,-1.72705 -2.35147,-3.42478 -3.5896,-5.09316 -1.23815,-1.66839 -2.51641,-3.30545 -3.8348,-4.91116 -1.31839,-1.60572 -2.67533,-3.17818 -4.0708,-4.71739 -1.39545,-1.5392 -2.82779,-3.04329 -4.297,-4.51226 -1.46921,-1.46899 -2.97354,-2.90109 -4.51297,-4.29633 -1.53943,-1.39524 -3.11209,-2.75192 -4.71802,-4.07006 -1.60593,-1.31813 -3.24319,-2.59613 -4.91174,-3.83401 -1.66858,-1.23786 -3.36649,-2.43412 -5.09369,-3.58875 -1.72724,-1.15464 -3.48172,-2.26627 -5.26346,-3.3349 -1.78171,-1.068625 -3.58853,-2.092962 -5.42047,-3.073011 -1.83194,-0.98005 -3.68677,-1.914635 -5.56455,-2.80375 -1.87774,-0.889114 -3.77615,-1.731697 -5.69522,-2.52774 -1.91906,-0.796051 -3.85647,-1.544617 -5.81222,-2.245689 -1.95578,-0.701066 -3.92752,-1.353806 -5.91528,-1.958214 -1.98777,-0.604409 -3.98914,-1.159752 -6.00412,-1.666046 -2.01496,-0.506295 -4.04111,-0.962929 -6.0785,-1.369889 -2.03738,-0.406967 -4.08352,-0.763778 -6.13836,-1.070427 -2.05487,-0.306648 -4.116,-0.562782 -6.18341,-0.768394 -2.06742,-0.20562 -4.13861,-0.360466 -6.21363,-0.464539 -2.07498,-0.104072 -4.1513,-0.157249 -6.22891,-0.159538 v -0.02 z"
       style="fill:#000000;fill-opacity:1;fill-rule:nonzero;stroke:none"
       transform="matrix(0.74365619,0,0,0.74385648,-55.057761,35.896136)"
       clip-path="url(#clipPath6)" />
    <path
       id="path7"
       d="m 458.48001,378.20999 c -1.38211,1.2e-4 -2.73462,-0.20004 -4.05746,-0.60052 -1.32288,-0.40046 -2.55933,-0.98401 -3.70938,-1.75067 -1.15,-0.76664 -2.16425,-1.68351 -3.0427,-2.75055 -0.87848,-1.06705 -1.58349,-2.23853 -2.11502,-3.51441 -0.53152,-1.27585 -0.86673,-2.60135 -1.00568,-3.97647 -0.13891,-1.37515 -0.0756,-2.74094 0.18995,-4.09735 0.26559,-1.35638 0.72201,-2.64517 1.36929,-3.86639 0.64725,-1.22123 1.45758,-2.32242 2.431,-3.30365 l 38.70999,-39 c 0.62967,-0.71616 1.32529,-1.36121 2.08679,-1.93522 0.76154,-0.574 1.57324,-1.06506 2.43512,-1.47317 0.86188,-0.40814 1.75614,-0.72492 2.68277,-0.95032 0.92658,-0.22537 1.8664,-0.35473 2.81943,-0.38809 0.95303,-0.0334 1.89957,0.03 2.83963,0.19006 0.94009,0.16007 1.85428,0.41358 2.74255,0.76047 0.88828,0.34689 1.7323,0.78003 2.53208,1.29941 0.7998,0.51935 1.53882,1.1142 2.21704,1.78458 0.67819,0.67037 1.28164,1.40243 1.8103,2.1961 0.5286,0.79367 0.97153,1.6326 1.32874,2.51679 0.3572,0.88418 0.6213,1.79535 0.79232,2.73355 0.17099,0.93814 0.24537,1.88391 0.22312,2.83728 -0.0222,0.95334 -0.14069,1.89459 -0.35532,2.82373 -0.2146,0.92917 -0.52093,1.82702 -0.919,2.69357 -0.39808,0.86655 -0.87967,1.6839 -1.44477,2.45206 -0.56509,0.76816 -1.20202,1.47122 -1.9108,2.10922 l -38.70999,39 c -1.30868,1.33783 -2.82464,2.37167 -4.54791,3.10153 -1.72324,0.72989 -3.5206,1.0994 -5.39209,1.10846 z"
       style="fill:#000000;fill-opacity:1;fill-rule:nonzero;stroke:none"
       transform="matrix(0.74365619,0,0,0.74385648,-55.057761,35.896136)"
       clip-path="url(#clipPath8)" />
    <path
       id="path9"
       d="m 626.46002,509.48999 c -3.23187,0.006 -6.33746,-0.61731 -9.31665,-1.87006 -2.97919,-1.25277 -5.59698,-3.0361 -7.85333,-5.34994 l -103,-105.48001 c -1.10147,-1.12741 -2.08237,-2.35141 -2.94275,-3.67203 -0.86035,-1.32065 -1.58362,-2.71249 -2.1698,-4.1756 -0.58621,-1.4631 -1.02405,-2.9693 -1.31354,-4.51864 -0.28949,-1.54935 -0.42505,-3.11203 -0.40667,-4.68805 0.0183,-1.57605 0.19018,-3.13517 0.51565,-4.67737 0.32547,-1.54218 0.79825,-3.03778 1.41834,-4.48685 0.62002,-1.44906 1.37548,-2.8237 2.26635,-4.12393 0.89087,-1.30026 1.9,-2.5011 3.02741,-3.60257 1.12738,-1.10147 2.35138,-2.0824 3.672,-2.94275 1.32061,-0.86032 2.71249,-1.58359 4.17562,-2.16977 1.46308,-0.58618 2.96924,-1.02402 4.51862,-1.31351 1.54938,-0.28945 3.11206,-0.42501 4.68811,-0.40667 1.57599,0.0183 3.13507,0.19021 4.67725,0.51565 1.54217,0.32547 3.03784,0.79825 4.48693,1.41834 1.44904,0.62005 2.82367,1.37552 4.12391,2.26636 1.30023,0.89083 2.50109,1.89999 3.6026,3.0274 l 103,105.48001 c 1.65002,1.68927 3.02087,3.58087 4.11254,5.67481 1.09174,2.09393 1.85773,4.3009 2.29798,6.62094 0.44018,2.32 0.53589,4.65414 0.28717,7.00244 -0.24872,2.3483 -0.83136,4.61059 -1.74793,6.78689 -0.91656,2.17627 -2.12793,4.17377 -3.63409,5.99253 -1.50616,1.81872 -3.24286,3.38113 -5.21014,4.68725 -1.96735,1.30606 -4.08149,2.30014 -6.34229,2.98218 -2.26074,0.68207 -4.57184,1.02304 -6.93323,1.02295 z"
       style="fill:#000000;fill-opacity:1;fill-rule:nonzero;stroke:none"
       transform="matrix(0.74365619,0,0,0.74385648,-55.057761,35.896136)"
       clip-path="url(#clipPath10)" />
    <path
       id="path11"
       d="m 348.47,316.84 c -19.57999,0 -45.45999,-5.60999 -73.16,-26.92002 -24.32001,-18.70001 -35.53,-47.47 -32.43,-83.17999 1.49663,-16.51427 5.42663,-32.4276 11.79,-47.73999 0.20303,-0.44673 0.44755,-0.86946 0.73356,-1.26819 0.28602,-0.39874 0.60804,-0.76588 0.9661,-1.10141 0.35806,-0.33552 0.74533,-0.63304 1.1618,-0.89255 0.41645,-0.25952 0.85416,-0.47607 1.31311,-0.64967 0.45899,-0.1736 0.93045,-0.30092 1.4144,-0.38199 0.48398,-0.0811 0.97119,-0.11432 1.46164,-0.0998 0.49048,0.0146 0.97489,0.0767 1.45319,0.18634 0.47827,0.10964 0.94134,0.26473 1.38919,0.46526 0.44784,0.20054 0.87195,0.4427 1.27228,0.72648 0.4003,0.28377 0.76922,0.60375 1.10675,0.95993 0.33749,0.35619 0.63717,0.74179 0.89901,1.15679 0.26181,0.415 0.48081,0.8515 0.65699,1.30949 0.17617,0.45799 0.30612,0.92874 0.38986,1.41225 0.0837,0.48349 0.11969,0.97052 0.10785,1.46107 -0.0118,0.49056 -0.0712,0.97528 -0.17819,1.45418 -0.10697,0.4789 -0.2595,0.94283 -0.45755,1.39178 -5.68882,13.89437 -9.21216,28.31771 -10.57001,43.27001 -2.56,30.60001 6.41,54.00001 26.66,69.59999 50,38.48001 92.75,18.60001 93.17999,18.39001 0.44498,-0.22604 0.9079,-0.40591 1.38877,-0.53958 0.48086,-0.13366 0.97018,-0.21847 1.46795,-0.25445 0.49784,-0.036 0.99427,-0.0224 1.48935,0.0408 0.49512,0.0632 0.9791,0.17462 1.45194,0.33438 0.47284,0.15976 0.92523,0.36469 1.35715,0.61475 0.43191,0.25006 0.83483,0.54034 1.20883,0.87088 0.37399,0.33053 0.71161,0.69479 1.01285,1.09271 0.30126,0.39792 0.56024,0.82172 0.77688,1.27133 0.21665,0.44965 0.38672,0.91626 0.51022,1.39981 0.12351,0.48358 0.198,0.97458 0.22349,1.47299 0.0255,0.49845 10e-4,0.99451 -0.0721,1.48816 -0.0736,0.49362 -0.19516,0.97513 -0.36484,1.44452 -0.16967,0.46936 -0.38406,0.91733 -0.64318,1.3439 -0.2591,0.42658 -0.5578,0.82334 -0.89615,1.19028 -0.33829,0.36694 -0.70954,0.69684 -1.11371,0.98966 -0.40418,0.29281 -0.83331,0.54278 -1.28742,0.7499 -1.06997,0.54999 -14.77999,6.93998 -35.66998,6.93998 z"
       style="fill:#000000;fill-opacity:1;fill-rule:nonzero;stroke:none"
       transform="matrix(0.74365619,0,0,0.74385648,-55.057761,35.896136)"
       clip-path="url(#clipPath12)" />
    <path
       id="path13"
       d="m -15.044518,37.926888 c 1.858291,-1.713665 3.755617,-3.382966 5.6919761,-5.007897 1.9363603,-1.624931 3.9096374,-3.20372 5.9198329,-4.736368 2.0101953,-1.532648 4.05511071,-3.017477 6.1347473,-4.454487 2.0796361,-1.437014 4.19172,-2.824638 6.3362517,-4.162874 2.144532,-1.338236 4.319167,-2.62562 6.523906,-3.862154 2.204739,-1.236534 4.437173,-2.420866 6.697299,-3.552997 2.260126,-1.132128 4.545477,-2.210819 6.856052,-3.2360695 2.310576,-1.0252504 4.643849,-1.9959402 6.999817,-2.9120698 2.355969,-0.9161296 4.732063,-1.7766976 7.128281,-2.5817039 2.396213,-0.8050065 4.809936,-1.5535713 7.241161,-2.2456946 2.431225,-0.69212337 4.877297,-1.32704868 7.338215,-1.90477605 2.460918,-0.57772735 4.933994,-1.09762535 7.419228,-1.55969385 2.485237,-0.4620686 4.979911,-0.8658026 7.484024,-1.2112022 2.504112,-0.3453994 5.01493,-0.632087 7.532455,-0.8600628 2.517525,-0.2279754 5.039001,-0.3969898 7.56443,-0.5070434 2.525429,-0.1100535 5.052048,-0.1610255 7.579857,-0.1529159 2.527809,0.00811 5.054045,0.075292 7.578715,0.2015466 2.52466,0.1262546 5.045,0.3114443 7.56101,0.5555683 2.51601,0.2441234 5.02493,0.546915 7.52679,0.9083743 2.50184,0.3614592 4.99388,0.7811911 7.47609,1.2591958 2.48223,0.4780047 4.95191,1.0137596 7.40908,1.60726482 2.45716,0.59350527 4.89911,1.24411193 7.32583,1.95182018 2.42674,0.7077082 4.8356,1.4717446 7.22661,2.2921091 2.39101,0.8203647 4.76154,1.6961601 7.11159,2.6273868 2.35005,0.9312272 4.67703,1.9168682 6.98097,2.9569226 2.30396,1.0400535 4.58234,2.1333835 6.83514,3.2799915 2.25283,1.146607 4.47762,2.345238 6.67438,3.595894 2.19676,1.250654 4.36309,2.551965 6.499,3.903934 2.13589,1.351969 4.23902,2.753115 6.3094,4.203442 2.07037,1.450326 4.10571,2.948246 6.10603,4.493759 2.00034,1.545515 3.96346,3.136932 5.88934,4.774252 1.92591,1.637325 3.81249,3.318763 5.65973,5.044315 l -49.75116,53.260181 c -2.03508,-1.901001 -4.15448,-3.702827 -6.35817,-5.405479 -2.20369,-1.702644 -4.48207,-3.298676 -6.83514,-4.788109 -2.35307,-1.489433 -4.77055,-2.865738 -7.25241,-4.128929 -2.48187,-1.263184 -5.0173,-2.40773 -7.60628,-3.433639 -2.58898,-1.025918 -5.22021,-1.928704 -7.89368,-2.708359 -2.67347,-0.779663 -5.37751,-1.432793 -8.1121,-1.959397 -2.7346,-0.526611 -5.4878,-0.924385 -8.25962,-1.193328 -2.77181,-0.268944 -5.550135,-0.407883 -8.334955,-0.416817 -2.784828,-0.0089 -5.563988,0.112167 -8.337471,0.363319 -2.773491,0.251152 -5.52919,0.631256 -8.267105,1.140312 -2.737908,0.509049 -5.446076,1.144822 -8.124497,1.907311 -2.678413,0.762497 -5.315384,1.648384 -7.910896,2.657661 -2.595516,1.009278 -5.138233,2.137528 -7.628155,3.384758 -2.489921,1.247246 -4.916168,2.608017 -7.278744,4.082314 -2.362579,1.474296 -4.651157,3.055679 -6.865738,4.744156 -2.21458,1.688476 -4.345485,3.476669 -6.392711,5.36457 z"
       style="fill:#ffffff;fill-opacity:1;fill-rule:nonzero;stroke:none"
       transform="translate(113.47482,49.999998)"
       clip-path="url(#clipPath14)" />
    <g
       id="g14">
      <g
         id="g15" />
      <path
         id="path15"
         d="m 19.682335,-3.3926419 c 2.472115,-0.00597 4.644826,-0.6385777 6.514759,-1.8997872 1.866557,-1.2631764 3.261423,-2.950477 4.183189,-5.0672439 l 4.12432,-0.0015 c -1.148251,3.2733349 -3.057065,5.8501908 -5.71969,7.7345015 -2.81019,2.0288904 -6.13981,3.04066973 -9.984076,3.04264682 C 13.734572,0.42007217 9.6304219,-1.3118803 6.4878274,-4.7711823 3.5227126,-8.0773077 2.0424567,-12.263223 2.0484674,-17.323587 c -7.39e-4,-5.064298 1.4809346,-9.251023 4.4469878,-12.563548 3.1383607,-3.46077 7.2406738,-5.193212 12.3069388,-5.197326 3.844266,-0.002 7.173506,1.011569 9.986313,3.035297 2.660358,1.889663 4.561793,4.476364 5.71302,7.760662 l -4.124319,0.0015 c -0.923614,-2.138863 -2.320008,-3.838914 -4.189181,-5.100153 -1.864391,-1.253931 -4.035036,-1.881565 -6.517276,-1.881495 -2.468181,-7.79e-4 -4.521774,0.357636 -6.160778,1.075243 -1.637596,0.722949 -3.02063,1.7073 -4.1457267,2.95502 -2.2633832,2.564615 -3.3944707,5.87056 -3.3952295,9.921212 -0.00751,4.046717 1.1203841,7.3400223 3.3923943,9.8804737 2.3763809,2.6871878 5.8137169,4.0350152 10.3207239,4.0440414 z m 0,0"
         style="fill:#000000;fill-opacity:1;fill-rule:nonzero;stroke:none"
         aria-label="C"
         transform="rotate(-30.235352,292.80453,-193.78807)" />
    </g>
    <g
       id="g16">
      <g
         id="g17" />
      <path
         id="path17"
         d="m 8.1789691,-30.890196 -0.00802,11.631139 19.2603709,-0.0034 -0.0019,3.812628 -19.2603716,0.0034 0.010273,11.6844241 21.5531956,0.00238 -0.005,3.76331928 -25.4946605,-0.00585611 -0.0054,-34.65880627 25.4946615,0.0059 0.01006,3.767297 z m 0,0"
         style="fill:#000000;fill-opacity:1;fill-rule:nonzero;stroke:none"
         aria-label="E"
         transform="rotate(-14.747787,486.96686,-585.33289)" />
    </g>
    <g
       id="g18">
      <g
         id="g19" />
      <path
         id="path19"
         d="m 19.693735,-3.4093289 c 2.476759,-7.279e-4 4.648549,-0.6264766 6.507506,-1.8810512 1.866819,-1.2507696 3.263084,-2.9408129 4.184888,-5.0700799 l 4.125463,0.0092 c -1.14544,3.2650609 -3.049794,5.8445508 -5.713165,7.7306578 -2.817791,2.02873753 -6.148755,3.04057846 -9.992689,3.05114646 C 13.742702,0.42173141 9.6418683,-1.3106228 6.5031871,-4.7703872 3.530572,-8.0760329 2.0467365,-12.260349 2.0438686,-17.323234 c 0.00494,-5.062986 1.4939203,-9.254435 4.4630234,-12.574296 3.1314371,-3.454781 7.230602,-5.179725 12.293588,-5.174781 3.843984,-0.0067 7.173681,1.001213 9.993046,3.027481 2.657356,1.883816 4.561984,4.468816 5.709978,7.755049 l -4.125464,-0.0092 c -0.914182,-2.121186 -2.307251,-3.814279 -4.175202,-5.071516 -1.860239,-1.26515 -4.032695,-1.901217 -6.509455,-1.900489 -2.480666,7.78e-4 -4.542562,0.363367 -6.189697,1.080006 -1.639272,0.720444 -3.009462,1.706967 -4.1183805,2.95967 -2.2797268,2.553084 -3.4208068,5.853248 -3.4192836,9.904347 -0.00233,4.055056 1.1340948,7.3531584 3.4092812,9.8943075 2.3786569,2.6882629 5.8181509,4.0306857 10.3184319,4.0233626 z m 0,0"
         style="fill:#000000;fill-opacity:1;fill-rule:nonzero;stroke:none"
         aria-label="C"
         transform="rotate(0.73977511,-7399.2758,14905.802)" />
    </g>
    <g
       id="g20">
      <g
         id="g21" />
      <path
         id="path21"
         d="M 32.722585,-34.648874 18.686931,5.0657546e-4 14.188129,-0.0058368 0.1667247,-34.655706 l 4.286292,0.004 11.9891593,30.1996384 11.994117,-30.2007704 z m 0,0"
         style="fill:#000000;fill-opacity:1;fill-rule:nonzero;stroke:none"
         aria-label="V"
         transform="rotate(16.465973,-222.73718,822.23179)" />
    </g>
    <g
       id="g22">
      <g
         id="g23" />
      <path
         id="path23"
         d="m 8.1725986,-30.894382 -1.324e-4,11.637899 19.2723218,-0.0037 5.02e-4,3.799799 -19.2723216,0.0037 -0.00257,11.694183 21.5581136,-2.791e-4 -0.0023,3.76497608 -25.4919425,-0.00935262 -0.00651,-34.65373636 25.4919415,0.0094 0.01103,3.756879 z m 0,0"
         style="fill:#000000;fill-opacity:1;fill-rule:nonzero;stroke:none"
         aria-label="E"
         transform="rotate(31.213764,-61.426231,503.29862)" />
    </g>
    <path
       id="path24"
       d="M 240.8,402.94 C 87.75,314.57999 -16.18,208.05 8.6700001,165 33.52,121.95 177.75,158.69 330.80002,247.06 483.85004,335.42999 587.78003,442 562.92999,485 538.07996,528 393.85001,491.31 240.8,402.94 Z"
       style="fill:none;stroke:#000000;stroke-width:4.6824356;stroke-linecap:butt;stroke-linejoin:miter;stroke-miterlimit:10;stroke-dasharray:none;stroke-opacity:1"
       transform="matrix(0.21328235,0,0,0.21384616,147.26555,111.04323)"
       clip-path="url(#clipPath25)" />
    <path
       id="path26"
       d="M 240.8,247.06 C 393.85001,158.69 538.08002,122 562.92999,165 587.77997,208 483.85001,314.57999 330.79999,402.94 177.74997,491.30002 33.529999,528.04999 8.6700001,485 -16.189999,441.95001 87.75,335.42001 240.8,247.06 Z"
       style="fill:none;stroke:#000000;stroke-width:4.6824356;stroke-linecap:butt;stroke-linejoin:miter;stroke-miterlimit:10;stroke-dasharray:none;stroke-opacity:1"
       transform="matrix(0.21328235,0,0,0.21384616,147.26555,111.04323)"
       clip-path="url(#clipPath27)" />
    <path
       id="path28"
       d="m 375.79999,325 c 3e-5,10.48038 -0.14444,20.93555 -0.43338,31.36548 -0.28891,10.42993 -0.72089,20.78439 -1.29599,31.06338 -0.57505,10.27903 -1.29038,20.43308 -2.14603,30.46219 -0.85565,10.02912 -1.84747,19.88498 -2.97549,29.56757 -1.12799,9.68262 -2.38672,19.14538 -3.77622,28.3883 -1.38949,9.24289 -2.90304,18.22138 -4.54065,26.93552 -1.6376,8.71414 -3.39139,17.12192 -5.26132,25.22342 -1.86996,8.10138 -3.84708,15.85748 -5.93133,23.26825 -2.08426,7.41083 -4.26566,14.44055 -6.54422,21.08917 -2.27854,6.64874 -4.64322,12.88434 -7.09406,18.70691 -2.45084,5.82263 -4.97604,11.20416 -7.57559,16.14459 -2.59958,4.94043 -5.26099,9.41596 -7.98422,13.42658 -2.72324,4.01068 -5.49518,7.53717 -8.31586,10.57947 -2.82071,3.04229 -5.67655,5.58575 -8.56751,7.63037 -2.89099,2.04467 -5.80319,3.58062 -8.7366,4.60791 -2.93341,1.02728 -5.87393,1.54089 -8.82153,1.54089 -2.9476,0 -5.88812,-0.51361 -8.82157,-1.54089 -2.93344,-1.02729 -5.84564,-2.56324 -8.7366,-4.60791 -2.89096,-2.04462 -5.74679,-4.58808 -8.56747,-7.63037 -2.82068,-3.0423 -5.59264,-6.56879 -8.31589,-10.57947 -2.72322,-4.01062 -5.38463,-8.48615 -7.98419,-13.42658 -2.59957,-4.94043 -5.12476,-10.32196 -7.57561,-16.14459 -2.45084,-5.82257 -4.81552,-12.05817 -7.09404,-18.70691 -2.27855,-6.64862 -4.45996,-13.67834 -6.54425,-21.08917 -2.08427,-7.41077 -4.06137,-15.16687 -5.93132,-23.26825 -1.86995,-8.1015 -3.62372,-16.50934 -5.26134,-25.22345 -1.6376,-8.71411 -3.15115,-17.69263 -4.54065,-26.93552 -1.38949,-9.24289 -2.64825,-18.70565 -3.77626,-28.38827 -1.12797,-9.68259 -2.11979,-19.53845 -2.97545,-29.56757 -0.85565,-10.02911 -1.571,-20.18316 -2.14605,-30.46219 -0.57505,-10.27899 -1.00702,-20.63345 -1.29593,-31.06338 -0.28893,-10.42993 -0.43338,-20.8851 -0.43338,-31.36548 0,-10.48038 0.14445,-20.93555 0.43338,-31.36551 0.28891,-10.4299 0.72088,-20.78439 1.29593,-31.06341 0.57505,-10.27901 1.2904,-20.43308 2.14605,-30.46219 0.85566,-10.02912 1.84748,-19.88498 2.97545,-29.56761 1.12801,-9.68262 2.38675,-19.14538 3.77623,-28.38826 1.3895,-9.24288 2.90305,-18.2214 4.54065,-26.93552 1.63762,-8.71413 3.39141,-17.1219 5.26135,-25.22335 1.86995,-8.10146 3.84707,-15.85756 5.93132,-23.26832 2.08428,-7.410759 4.26569,-14.440483 6.54424,-21.089172 2.27852,-6.648697 4.6432,-12.884339 7.09404,-18.706936 2.45085,-5.822594 4.97606,-11.204102 7.57562,-16.144528 2.59957,-4.940422 5.26097,-9.415969 7.98419,-13.426647 2.72326,-4.010673 5.49523,-7.537157 8.31591,-10.579456 2.82068,-3.042298 5.67651,-5.585758 8.56747,-7.630382 2.89096,-2.0446221 5.80316,-3.5805628 8.7366,-4.6078216 2.93345,-1.027258 5.87397,-1.5408869 8.82157,-1.5408874 2.9476,5e-7 5.88812,0.5136294 8.82153,1.5408874 2.93341,1.0272588 5.84561,2.5631995 8.73657,4.6078216 2.89099,2.044624 5.74683,4.588084 8.56754,7.630382 2.82068,3.042299 5.59262,6.568783 8.31586,10.579456 2.72323,4.010678 5.38464,8.486225 7.98422,13.426647 2.59955,4.940426 5.12475,10.321934 7.57559,16.144528 2.45084,5.822597 4.81555,12.058239 7.09409,18.706936 2.27853,6.648689 4.45993,13.678413 6.54419,21.089172 2.08425,7.41076 4.06137,15.16686 5.93133,23.26831 1.86993,8.10146 3.62372,16.50923 5.26132,25.22336 1.63761,8.71412 3.15119,17.69264 4.54068,26.93553 1.3895,9.24287 2.64823,18.70563 3.77622,28.38825 1.12802,9.68263 2.11984,19.53849 2.97546,29.56762 0.85565,10.0291 1.57098,20.18317 2.14603,30.46218 0.5751,10.27902 1.00708,20.63351 1.29599,31.06341 0.28894,10.42996 0.43341,20.88513 0.43338,31.36551 z"
       style="fill:none;stroke:#000000;stroke-width:4.6824356;stroke-linecap:butt;stroke-linejoin:miter;stroke-miterlimit:10;stroke-dasharray:none;stroke-opacity:1"
       transform="matrix(0.21328235,0,0,0.21384616,147.26555,111.04323)"
       clip-path="url(#clipPath29)" />
    <path
       id="path30"
       d="m 253.8,325 c -1e-5,2.10117 0.20493,4.18213 0.61483,6.24289 0.40991,2.06076 1.0169,4.06177 1.82098,6.00296 0.80408,1.94119 1.78976,3.78534 2.95709,5.53238 1.16736,1.74704 2.4939,3.36343 3.97965,4.84918 1.48574,1.48572 3.10211,2.81226 4.84915,3.97962 1.74704,1.16732 3.59118,2.15304 5.53238,2.95709 1.94119,0.80407 3.9422,1.41107 6.00299,1.82098 2.06076,0.40991 4.14175,0.61487 6.24292,0.6149 2.10113,-3e-5 4.1821,-0.20499 6.24286,-0.6149 2.06076,-0.40991 4.06173,-1.01691 6.00296,-1.82098 1.94119,-0.80405 3.78534,-1.78977 5.53238,-2.95709 1.74704,-1.16736 3.36346,-2.4939 4.84921,-3.97962 1.48572,-1.48575 2.81225,-3.10214 3.97958,-4.84918 1.16733,-1.74704 2.15302,-3.59119 2.95709,-5.53238 0.80411,-1.94119 1.41111,-3.9422 1.82102,-6.00296 0.40994,-2.06076 0.6149,-4.14172 0.6149,-6.24289 0,-2.10117 -0.20496,-4.18213 -0.6149,-6.24292 -0.40991,-2.06079 -1.01691,-4.0618 -1.82098,-6.00299 -0.80408,-1.94122 -1.7898,-3.78534 -2.95713,-5.53238 -1.16733,-1.74704 -2.49386,-3.3634 -3.97958,-4.84915 -1.48575,-1.48575 -3.10217,-2.81229 -4.84921,-3.97962 -1.74704,-1.16732 -3.59119,-2.15304 -5.53238,-2.95712 -1.94123,-0.80408 -3.94223,-1.41107 -6.00299,-1.82095 C 289.98206,293.20496 287.90112,293 285.79999,293 c -2.10117,0 -4.18213,0.20496 -6.24289,0.61487 -2.06079,0.40988 -4.0618,1.01687 -6.00299,1.82098 -1.94123,0.80405 -3.78537,1.78977 -5.53241,2.95709 -1.74704,1.16733 -3.36341,2.4939 -4.84915,3.97965 -1.48575,1.48575 -2.81229,3.10214 -3.97962,4.84918 -1.16733,1.74701 -2.15301,3.59113 -2.95709,5.53235 -0.80408,1.94119 -1.41107,3.9422 -1.821,6.00296 -0.40991,2.06079 -0.61487,4.14175 -0.61485,6.24292"
       style="fill:#000000;fill-opacity:1;fill-rule:nonzero;stroke:none"
       transform="matrix(0.21328235,0,0,0.21384616,147.26555,111.04323)"
       clip-path="url(#clipPath31)" />
    <path
       id="path32"
       d="m 495.79999,385 c -3e-5,2.65213 0.50741,5.20334 1.52237,7.65363 1.01492,2.45028 2.46008,4.61309 4.33548,6.48846 1.87533,1.87534 4.03814,3.3205 6.48843,4.33545 2.45029,1.01495 5.0015,1.52243 7.65372,1.52246 2.65216,-3e-5 5.20337,-0.50751 7.65362,-1.52246 2.45026,-1.01495 4.6131,-2.46011 6.48853,-4.33545 1.8753,-1.87537 3.32043,-4.03818 4.33533,-6.48846 1.01495,-2.45029 1.52246,-5.0015 1.52252,-7.65363 -6e-5,-2.65219 -0.50757,-5.20343 -1.52252,-7.65372 -1.0149,-2.45025 -2.46003,-4.61306 -4.33533,-6.48843 -1.87543,-1.8754 -4.03827,-3.32056 -6.48853,-4.33548 C 521.00336,365.50745 518.45215,365 515.79999,365 c -2.65216,3e-5 -5.20337,0.50751 -7.65366,1.52246 -2.45029,1.01492 -4.6131,2.46005 -6.48843,4.33542 -1.87537,1.87537 -3.32053,4.03821 -4.33545,6.48849 -1.01499,2.45029 -1.52246,5.0015 -1.52246,7.65363"
       style="fill:#000000;fill-opacity:1;fill-rule:nonzero;stroke:none"
       transform="matrix(0.21328235,0,0,0.21384616,147.26555,111.04323)"
       clip-path="url(#clipPath33)" />
    <path
       id="path34"
       d="m 204.8,95 c -1e-5,2.652153 0.50745,5.20337 1.52239,7.65365 1.01494,2.45028 2.46008,4.6131 4.33546,6.48848 1.87535,1.87536 4.03818,3.32051 6.48845,4.33544 2.4503,1.01495 5.00154,1.52242 7.65372,1.52243 2.65214,-1e-5 5.20337,-0.50748 7.65365,-1.52243 2.45028,-1.01493 4.61309,-2.46008 6.48847,-4.33544 1.87535,-1.87538 3.32049,-4.0382 4.33545,-6.48847 1.01494,-2.45028 1.52241,-5.001507 1.52243,-7.65366 -2e-5,-2.652168 -0.50749,-5.2034 -1.52243,-7.653679 -1.01496,-2.450279 -2.46012,-4.613106 -4.33547,-6.488464 -1.87538,-1.875359 -4.0382,-3.320511 -6.48849,-4.335457 C 230.00336,75.507469 227.45215,75 224.8,75 c -2.65214,0 -5.20337,0.507469 -7.65367,1.522408 -2.45027,1.014946 -4.6131,2.460098 -6.48846,4.335456 -1.87535,1.875367 -3.3205,4.038193 -4.33544,6.488472 C 205.3075,89.796616 204.80002,92.347832 204.8,95"
       style="fill:#000000;fill-opacity:1;fill-rule:nonzero;stroke:none"
       transform="matrix(0.21328235,0,0,0.21384616,147.26555,111.04323)"
       clip-path="url(#clipPath35)" />
    <path
       id="path36"
       d="m 98.800003,494 c -8e-6,2.65213 0.507462,5.20334 1.522387,7.65363 1.01495,2.45028 2.4601,4.61309 4.33547,6.48846 1.87536,1.87534 4.03818,3.32046 6.48846,4.33539 2.45028,1.01495 5.00152,1.52246 7.65368,1.52252 2.65216,-6e-5 5.20338,-0.50757 7.65365,-1.52252 2.45028,-1.01493 4.61311,-2.46005 6.48847,-4.33539 1.87535,-1.87537 3.3205,-4.03818 4.33545,-6.48846 1.01494,-2.45029 1.52242,-5.0015 1.52243,-7.65363 -1e-5,-2.65219 -0.50749,-5.20346 -1.52243,-7.65375 -1.01495,-2.45028 -2.4601,-4.6131 -4.33545,-6.48843 -1.87536,-1.87537 -4.03819,-3.32053 -6.48847,-4.33545 C 124.00338,474.50745 121.45216,474 118.8,474 c -2.65216,0 -5.20339,0.50748 -7.65368,1.5224 -2.45028,1.01495 -4.61309,2.46011 -6.48846,4.33545 -1.87536,1.87537 -3.32051,4.03821 -4.33546,6.48849 -1.014935,2.45029 -1.522405,5.0015 -1.522397,7.65366"
       style="fill:#000000;fill-opacity:1;fill-rule:nonzero;stroke:none"
       transform="matrix(0.21328235,0,0,0.21384616,147.26555,111.04323)"
       clip-path="url(#clipPath37)" />
    <path
       id="path38"
       d="m 500.79999,385 c -3e-5,1.98911 0.38055,3.90253 1.14175,5.74023 0.7612,1.83774 1.84506,3.45987 3.25165,4.8664 1.40652,1.40649 3.02863,2.49032 4.86636,3.25152 1.83774,0.76123 3.75116,1.14185 5.7403,1.14188 1.98907,-3e-5 3.90246,-0.38065 5.74017,-1.14188 1.83771,-0.7612 3.45984,-1.84503 4.8664,-3.25152 1.40649,-1.40653 2.49035,-3.02866 3.25152,-4.8664 0.76123,-1.83767 1.14185,-3.75109 1.14191,-5.7402 -6e-5,-1.98917 -0.38068,-3.90259 -1.14191,-5.74033 -0.76117,-1.8377 -1.84503,-3.4598 -3.25152,-4.86633 -1.40656,-1.40652 -3.02869,-2.49042 -4.8664,-3.25162 C 519.70251,370.38058 517.78906,370 515.79999,370 c -1.98908,3e-5 -3.90253,0.38065 -5.74027,1.14185 -1.83767,0.7612 -3.45977,1.84506 -4.8663,3.25158 -1.40652,1.40653 -2.49039,3.02863 -3.25162,4.86634 -0.7612,1.8377 -1.14178,3.75112 -1.14181,5.74023"
       style="fill:#ffffff;fill-opacity:1;fill-rule:nonzero;stroke:none"
       transform="matrix(0.21328235,0,0,0.21384616,147.26555,111.04323)"
       clip-path="url(#clipPath39)" />
    <path
       id="path40"
       d="m 209.8,95 c -1e-5,1.989113 0.38059,3.902527 1.14177,5.74024 0.76122,1.8377 1.84508,3.45982 3.25162,4.86635 1.40652,1.40652 3.02864,2.49038 4.86635,3.25159 1.83772,0.7612 3.75116,1.14181 5.74028,1.14182 1.9891,-1e-5 3.90251,-0.38062 5.74022,-1.14182 1.83772,-0.76121 3.45984,-1.84507 4.86638,-3.25159 1.40651,-1.40653 2.49037,-3.02865 3.25158,-4.86635 C 239.4194,98.902527 239.8,96.989113 239.80002,95 239.8,93.010864 239.4194,91.097443 238.6582,89.259735 237.89699,87.42202 236.81311,85.799911 235.4066,84.393394 234.00006,82.98687 232.37794,81.903008 230.54022,81.1418 228.70251,80.3806 226.78911,80 224.8,80 c -1.98912,8e-6 -3.90254,0.380608 -5.74023,1.141808 -1.83771,0.761207 -3.45982,1.845077 -4.86636,3.251594 -1.40653,1.406525 -2.49039,3.028641 -3.25159,4.866348 -0.7612,1.837716 -1.1418,3.75113 -1.14182,5.74025"
       style="fill:#ffffff;fill-opacity:1;fill-rule:nonzero;stroke:none"
       transform="matrix(0.21328235,0,0,0.21384616,147.26555,111.04323)"
       clip-path="url(#clipPath41)" />
    <path
       id="path42"
       d="m 103.8,494 c 0,1.98911 0.38059,3.9025 1.1418,5.74017 0.76121,1.83771 1.84507,3.45984 3.2516,4.8664 1.40652,1.40649 3.02863,2.49035 4.86635,3.25158 1.83771,0.7612 3.75113,1.14182 5.74026,1.14185 1.98911,-3e-5 3.90253,-0.38068 5.74023,-1.14188 1.83771,-0.7612 3.45984,-1.84506 4.86636,-3.25155 1.40651,-1.40656 2.49037,-3.02869 3.25159,-4.8664 0.7612,-1.83767 1.1418,-3.75106 1.14181,-5.74017 -1e-5,-1.98917 -0.38061,-3.90262 -1.14181,-5.74036 -0.76122,-1.83767 -1.84508,-3.45977 -3.25159,-4.8663 -1.40652,-1.40652 -3.02865,-2.49039 -4.86636,-3.25159 C 122.70254,479.38058 120.78912,479 118.8,479 c -1.98912,0 -3.90253,0.38062 -5.74023,1.14182 -1.83772,0.7612 -3.45984,1.84506 -4.86636,3.25158 -1.40653,1.40653 -2.49039,3.02863 -3.25159,4.86634 C 104.18061,490.09747 103.8,492.01089 103.8,494"
       style="fill:#ffffff;fill-opacity:1;fill-rule:nonzero;stroke:none"
       transform="matrix(0.21328235,0,0,0.21384616,147.26555,111.04323)"
       clip-path="url(#clipPath43)" />
    <g
       id="g49"
       clip-path="url(#clipPath49)">
      <g
         clip-path="url(#clipPath46)"
         id="g48">
        <g
           clip-path="url(#clipPath45)"
           id="g47">
          <path
             d="M 0,0 H 256 V 256 H 0 Z"
             style="fill:#f3ff0e;fill-opacity:1;fill-rule:nonzero;stroke:none"
             transform="matrix(0.0556089,0,0,0.0556089,187.97013,124.06382)"
             clip-path="url(#clipPath44)"
             id="path47" />
        </g>
      </g>
    </g>
    <g
       id="g55"
       clip-path="url(#clipPath55)">
      <g
         clip-path="url(#clipPath52)"
         id="g54">
        <g
           clip-path="url(#clipPath51)"
           id="g53">
          <path
             d="M 0,0 H 256 V 256 H 0 Z"
             style="fill:#ff3131;fill-opacity:1;fill-rule:nonzero;stroke:none"
             transform="matrix(0.05114865,0,0,0.05114865,251.73991,187.57515)"
             clip-path="url(#clipPath50)"
             id="path53" />
        </g>
      </g>
    </g>
    <g
       id="g61"
       clip-path="url(#clipPath61)">
      <g
         clip-path="url(#clipPath58)"
         id="g60">
        <g
           clip-path="url(#clipPath57)"
           id="g59">
          <path
             d="M 0,0 H 256 V 256 H 0 Z"
             style="fill:#004aad;fill-opacity:1;fill-rule:nonzero;stroke:none"
             transform="matrix(0.04588739,0,0,0.04588739,166.99663,210.18396)"
             clip-path="url(#clipPath56)"
             id="path59" />
        </g>
      </g>
    </g>
  </g>
</svg>
